<?xml version="1.0" encoding="UTF-8"?>
<svg xmlns="http://www.w3.org/2000/svg"
     width="70" height="106" viewBox="0 0 70 106"
     fill="#F9D7E2">
  <title>My Icon</title>
  <path d="M 48,0 39,0 37,2 32,3 24,7 13,17 9,24 4,40 5,93 2,100 0,102 0,104 2,105 6,104 14,95 23,91 27,91 39,87 54,79 63,70 68,62 69,59 69,47 64,40 58,37 46,37 45,38 42,38 39,41 37,41 30,48 30,50 27,55 27,60 26,61 26,66 27,67 28,59 32,49 42,40 49,39 50,38 59,39 65,44 65,46 67,49 67,59 65,63 51,76 40,81 32,82 20,86 11,93 7,100 4,103 3,102 3,99 6,95 10,83 10,77 11,76 11,38 12,37 12,31 16,18 21,12 32,4 48,3 56,10 56,16 54,19 53,24 57,18 58,11 56,7 52,3 49,2 Z"/>
</svg>
